<svg xmlns="http://www.w3.org/2000/svg" viewBox="80 72 440 200" width="440" height="200">
  <title>Pantex  ťcone</title>
  <!-- Apenas o sťmbolo de fibra (azul-ciano + acento), fundo transparente -->
  <g fill-rule="evenodd">
    <path fill="#fbbf24" d="m352.5 157.77c23.11 0 41.84 18.73 41.84 41.84 0 23.1-18.73 41.84-41.84 41.84-23.11 0-41.84-18.74-41.84-41.84 0-23.11 18.73-41.84 41.84-41.84z"/>
    <path fill="#ffffff" d="m352.5 149.83c20.6 0 38.27 12.51 45.84 30.35v-22.74c-1.35-8.59-22.14-31.45-45.84-31.12-7.72 0.11-16.14 1.96-23.61 5.77-8.63 4.41-13.79 10.14-18.83 18.17-3.96 6.3-7.35 13.31-11.09 20.22-4.06 7.5-8.72 16.45-13.11 23.66-8.28 13.64-22.93 22.98-39.83 23.9-2.4 0.13-4.91 0.07-7.31 0.07h-45.25v23.51h49.2c2.29 0 3.82-0.09 6.13-0.36 11.21-1.32 23.05-6.2 30.88-15.26 7.23-8.37 12.1-19.4 17.95-30.02 4.04-7.33 8.55-16.31 12.86-23.08 8.84-13.87 24.35-23.07 42.01-23.07z"/>
    <path fill="#ffffff" d="m352.5 118.43c20.6 0 38.27 12.51 45.84 30.35v-22.74c-1.35-8.59-22.14-31.45-45.84-31.12-8.52 0.12-17.89 2.36-25.9 7.02-7.6 4.43-12.26 10.02-16.83 17.37-3.83 6.18-7.15 13.03-10.8 19.77-4.06 7.5-8.72 16.45-13.11 23.66-8.28 13.64-22.93 22.98-39.83 23.9-2.4 0.13-4.91 0.07-7.31 0.07h-45.25v23.51h49.2c2.29 0 3.82-0.09 6.13-0.36 11.21-1.32 23.05-6.2 30.88-15.26 7.23-8.37 12.1-19.4 17.95-30.02 4.04-7.33 8.55-16.31 12.86-23.08 8.84-13.87 24.35-23.07 42.01-23.07z"/>
    <path fill="#ffffff" d="m352.5 87.03c20.6 0 38.27 12.51 45.84 30.35v-22.74c-1.35-8.59-22.14-31.45-45.84-31.12-6.27 0.09-13 1.33-19.32 3.83-10.8 4.29-17.12 10.56-23.14 20.14-3.95 6.29-7.33 13.29-11.07 20.19-4.06 7.5-8.72 16.45-13.11 23.66-8.28 13.64-22.93 22.98-39.83 23.9-2.4 0.13-4.91 0.07-7.31 0.07h-45.25v23.51h49.2c2.29 0 3.82-0.09 6.13-0.36 11.21-1.32 23.05-6.2 30.88-15.26 7.23-8.37 12.1-19.4 17.95-30.02 4.04-7.33 8.55-16.31 12.86-23.08 8.84-13.87 24.35-23.07 42.01-23.07z"/>
  </g>
</svg>
